<svg xmlns="http://www.w3.org/2000/svg" width="1200" height="630" viewBox="0 0 1200 630" role="img" aria-labelledby="title desc">
  <title id="title">UR Sport - Do the thao nam</title>
  <desc id="desc">Open Graph image for UR Sport mens sportswear and apparel.</desc>
  <rect width="1200" height="630" fill="#f8fafc"/>
  <rect x="0" y="0" width="1200" height="630" fill="#ffffff"/>
  <rect x="60" y="60" width="1080" height="510" rx="34" fill="#102f43"/>
  <circle cx="1010" cy="138" r="94" fill="#f97316" opacity=".95"/>
  <circle cx="1070" cy="510" r="150" fill="#0ea5e9" opacity=".26"/>
  <path d="M95 468c112-92 235-138 370-138 190 0 310 90 468 90 76 0 139-22 192-55v205H95z" fill="#ffffff" opacity=".09"/>
  <g transform="translate(96 110)">
    <text x="0" y="0" fill="#ffffff" font-family="Arial, Helvetica, sans-serif" font-size="44" font-weight="800" letter-spacing="0">URSPORT</text>
    <text x="0" y="92" fill="#ffffff" font-family="Arial, Helvetica, sans-serif" font-size="72" font-weight="900" letter-spacing="0">Ao thun nam</text>
    <text x="0" y="170" fill="#ffffff" font-family="Arial, Helvetica, sans-serif" font-size="72" font-weight="900" letter-spacing="0">the thao cao cap</text>
    <text x="0" y="238" fill="#cbd5e1" font-family="Arial, Helvetica, sans-serif" font-size="30" font-weight="700" letter-spacing="0">Cotton thoang mat | Form nam dep | Giao hang toan quoc</text>
    <rect x="0" y="302" width="310" height="64" rx="32" fill="#f97316"/>
    <text x="34" y="344" fill="#ffffff" font-family="Arial, Helvetica, sans-serif" font-size="24" font-weight="900" letter-spacing="0">URSPORT.VN</text>
  </g>
  <g transform="translate(770 188)">
    <rect x="0" y="0" width="260" height="320" rx="42" fill="#ffffff"/>
    <path d="M78 36h104l54 46-38 62-31-21v154H93V123l-31 21-38-62z" fill="#ef4444"/>
    <path d="M91 36c12 18 24 27 39 27s27-9 39-27z" fill="#991b1b" opacity=".34"/>
    <text x="82" y="182" fill="#ffffff" font-family="Arial, Helvetica, sans-serif" font-size="46" font-weight="900">UR</text>
    <text x="83" y="218" fill="#fde68a" font-family="Arial, Helvetica, sans-serif" font-size="22" font-weight="900">SPORT</text>
  </g>
</svg>
